<svg id="_-Product-Icons" data-name="ðŸ”-Product-Icons" xmlns="http://www.w3.org/2000/svg" width="87.773" height="70.219" viewBox="0 0 87.773 70.219">
  <g id="ic_fluent_mail_24_regular">
    <path id="_-Color" data-name="ðŸŽ¨-Color" d="M16.263,4H75.51A14.264,14.264,0,0,1,89.751,17.454l.022.809V59.955A14.265,14.265,0,0,1,76.319,74.2l-.809.022H16.263A14.264,14.264,0,0,1,2.023,60.765L2,59.955V18.263A14.264,14.264,0,0,1,15.454,4.023L16.263,4h0ZM83.19,27.58,47.42,46.411a3.293,3.293,0,0,1-2.644.186l-.422-.186L8.583,27.585V59.955a7.681,7.681,0,0,0,7.05,7.655l.63.025H75.51a7.681,7.681,0,0,0,7.655-7.05l.025-.63Zm-7.68-17H16.263a7.681,7.681,0,0,0-7.655,7.05l-.025.63v1.883l37.3,19.633,37.3-19.637V18.263a7.681,7.681,0,0,0-7.05-7.655Z" transform="translate(-2 -4)" fill="#0576bc"/>
  </g>
</svg>
